<svg id="Layer_1" data-name="Layer 1" xmlns="http://www.w3.org/2000/svg" viewBox="0 0 505.23 88.71"><defs><style>.cls-1{fill:#6fdd51;}.cls-2{fill:#5dbb44;}</style></defs><polygon class="cls-1" points="474.62 17.94 474.62 17.94 479.39 22.71 479.39 30.12 484.16 34.88 484.16 34.88 484.16 17.94 484.16 17.94 474.62 17.94"/><polygon class="cls-2" points="479.39 30.12 479.39 22.71 474.62 17.94 474.62 34.88 474.62 34.88 484.16 34.88 479.39 30.12"/><polygon class="cls-1" points="474.62 35.88 474.62 35.88 479.39 40.65 479.39 48.06 484.16 52.82 484.16 52.82 484.16 35.88 484.16 35.88 474.62 35.88"/><polygon class="cls-2" points="479.39 48.06 479.39 40.65 474.62 35.88 474.62 52.82 474.62 52.82 484.16 52.82 479.39 48.06"/><polygon class="cls-1" points="485.16 35.88 485.16 35.88 489.93 40.65 489.93 48.06 494.69 52.82 494.7 52.82 494.7 35.88 494.7 35.88 485.16 35.88"/><polygon class="cls-2" points="489.93 48.06 489.93 40.65 485.16 35.88 485.16 52.82 485.16 52.82 494.69 52.82 489.93 48.06"/><polygon class="cls-1" points="495.7 35.88 495.7 35.88 500.46 40.65 500.46 48.06 505.23 52.82 505.23 52.82 505.23 35.88 505.23 35.88 495.7 35.88"/><polygon class="cls-2" points="500.46 48.06 500.46 40.65 495.7 35.88 495.7 52.82 495.7 52.82 505.23 52.82 500.46 48.06"/><polygon class="cls-1" points="474.62 0 474.62 0 479.39 4.77 479.39 12.18 484.16 16.94 484.16 16.94 484.16 0 484.16 0 474.62 0"/><polygon class="cls-2" points="479.39 12.18 479.39 4.77 474.62 0 474.62 16.94 474.62 16.94 484.16 16.94 479.39 12.18"/><polygon class="cls-1" points="495.7 0 495.7 0 500.46 4.77 500.46 12.18 505.23 16.94 505.23 16.94 505.23 0 505.23 0 495.7 0"/><polygon class="cls-2" points="500.46 12.18 500.46 4.77 495.7 0 495.7 16.94 495.7 16.94 505.23 16.94 500.46 12.18"/><polygon class="cls-1" points="495.7 53.82 495.7 53.83 500.46 58.59 500.46 66 505.23 70.77 505.23 70.77 505.23 53.83 505.23 53.82 495.7 53.82"/><polygon class="cls-2" points="500.46 66 500.46 58.59 495.7 53.83 495.7 70.77 495.7 70.77 505.23 70.77 500.46 66"/><polygon class="cls-1" points="474.62 71.77 474.62 71.77 479.39 76.54 479.39 83.94 484.16 88.71 484.16 88.71 484.16 71.77 484.16 71.77 474.62 71.77"/><polygon class="cls-2" points="479.39 83.94 479.39 76.54 474.62 71.77 474.62 88.71 474.62 88.71 484.16 88.71 479.39 83.94"/><polygon class="cls-1" points="485.16 71.77 485.16 71.77 489.93 76.54 489.93 83.94 494.69 88.71 494.7 88.71 494.7 71.77 494.7 71.77 485.16 71.77"/><polygon class="cls-2" points="489.93 83.94 489.93 76.54 485.16 71.77 485.16 88.71 485.16 88.71 494.69 88.71 489.93 83.94"/><polygon class="cls-1" points="495.7 71.77 495.7 71.77 500.46 76.54 500.46 83.94 505.23 88.71 505.23 88.71 505.23 71.77 505.23 71.77 495.7 71.77"/><polygon class="cls-2" points="500.46 83.94 500.46 76.54 495.7 71.77 495.7 88.71 495.7 88.71 505.23 88.71 500.46 83.94"/><polygon class="cls-1" points="485.16 0 485.16 0 489.93 4.77 489.93 12.18 494.69 16.94 494.7 16.94 494.7 0 494.7 0 485.16 0"/><polygon class="cls-2" points="489.93 12.18 489.93 4.77 485.16 0 485.16 16.94 485.16 16.94 494.69 16.94 489.93 12.18"/><polygon class="cls-1" points="358.72 17.94 358.72 17.94 363.49 22.71 363.49 30.12 368.25 34.88 368.25 34.88 368.25 17.94 368.25 17.94 358.72 17.94"/><polygon class="cls-2" points="363.49 30.12 363.49 22.71 358.72 17.94 358.72 34.88 358.72 34.88 368.25 34.88 363.49 30.12"/><polygon class="cls-1" points="358.72 35.88 358.72 35.88 363.49 40.65 363.49 48.06 368.25 52.82 368.25 52.82 368.25 35.88 368.25 35.88 358.72 35.88"/><polygon class="cls-2" points="363.49 48.06 363.49 40.65 358.72 35.88 358.72 52.82 358.72 52.82 368.25 52.82 363.49 48.06"/><polygon class="cls-1" points="358.72 71.77 358.72 71.77 363.49 76.54 363.49 83.94 368.25 88.71 368.25 88.71 368.25 71.77 368.25 71.77 358.72 71.77"/><polygon class="cls-2" points="363.49 83.94 363.49 76.54 358.72 71.77 358.72 88.71 358.72 88.71 368.25 88.71 363.49 83.94"/><polygon class="cls-1" points="358.72 53.82 358.72 53.83 363.49 58.59 363.49 66 368.25 70.77 368.25 70.77 368.25 53.83 368.25 53.82 358.72 53.82"/><polygon class="cls-2" points="363.49 66 363.49 58.59 358.72 53.83 358.72 70.77 358.72 70.77 368.25 70.77 363.49 66"/><polygon class="cls-1" points="348.18 0 348.18 0 352.95 4.77 352.95 12.18 357.71 16.94 357.72 16.94 357.72 0 357.72 0 348.18 0"/><polygon class="cls-2" points="352.95 12.18 352.95 4.77 348.18 0 348.18 16.94 348.18 16.94 357.71 16.94 352.95 12.18"/><polygon class="cls-1" points="358.72 0 358.72 0 363.49 4.77 363.49 12.18 368.25 16.94 368.25 16.94 368.25 0 368.25 0 358.72 0"/><polygon class="cls-2" points="363.49 12.18 363.49 4.77 358.72 0 358.72 16.94 358.72 16.94 368.25 16.94 363.49 12.18"/><polygon class="cls-1" points="369.25 0 369.25 0 374.02 4.77 374.02 12.18 378.79 16.94 378.79 16.94 378.79 0 378.79 0 369.25 0"/><polygon class="cls-2" points="374.02 12.18 374.02 4.77 369.25 0 369.25 16.94 369.26 16.94 378.79 16.94 374.02 12.18"/><polygon class="cls-1" points="443.01 17.94 443.01 17.94 447.78 22.71 447.78 30.12 452.55 34.88 452.55 34.88 452.55 17.94 452.55 17.94 443.01 17.94"/><polygon class="cls-2" points="447.78 30.12 447.78 22.71 443.01 17.94 443.01 34.88 443.01 34.88 452.55 34.88 447.78 30.12"/><polygon class="cls-1" points="443.01 35.88 443.01 35.88 447.78 40.65 447.78 48.06 452.55 52.82 452.55 52.82 452.55 35.88 452.55 35.88 443.01 35.88"/><polygon class="cls-2" points="447.78 48.06 447.78 40.65 443.01 35.88 443.01 52.82 443.01 52.82 452.55 52.82 447.78 48.06"/><polygon class="cls-1" points="443.01 71.77 443.01 71.77 447.78 76.54 447.78 83.94 452.55 88.71 452.55 88.71 452.55 71.77 452.55 71.77 443.01 71.77"/><polygon class="cls-2" points="447.78 83.94 447.78 76.54 443.01 71.77 443.01 88.71 443.01 88.71 452.55 88.71 447.78 83.94"/><polygon class="cls-1" points="432.48 71.77 432.48 71.77 437.24 76.54 437.24 83.94 442.01 88.71 442.01 88.71 442.01 71.77 442.01 71.77 432.48 71.77"/><polygon class="cls-2" points="437.24 83.94 437.24 76.54 432.48 71.77 432.48 88.71 432.48 88.71 442.01 88.71 437.24 83.94"/><polygon class="cls-1" points="453.55 71.77 453.55 71.77 458.32 76.54 458.32 83.94 463.08 88.71 463.08 88.71 463.08 71.77 463.08 71.77 453.55 71.77"/><polygon class="cls-2" points="458.32 83.94 458.32 76.54 453.55 71.77 453.55 88.71 453.55 88.71 463.08 88.71 458.32 83.94"/><polygon class="cls-1" points="443.01 53.82 443.01 53.83 447.78 58.59 447.78 66 452.55 70.77 452.55 70.77 452.55 53.83 452.55 53.82 443.01 53.82"/><polygon class="cls-2" points="447.78 66 447.78 58.59 443.01 53.83 443.01 70.77 443.01 70.77 452.55 70.77 447.78 66"/><polygon class="cls-1" points="432.48 0 432.48 0 437.24 4.77 437.24 12.18 442.01 16.94 442.01 16.94 442.01 0 442.01 0 432.48 0"/><polygon class="cls-2" points="437.24 12.18 437.24 4.77 432.48 0 432.48 16.94 432.48 16.94 442.01 16.94 437.24 12.18"/><polygon class="cls-1" points="443.01 0 443.01 0 447.78 4.77 447.78 12.18 452.55 16.94 452.55 16.94 452.55 0 452.55 0 443.01 0"/><polygon class="cls-2" points="447.78 12.18 447.78 4.77 443.01 0 443.01 16.94 443.01 16.94 452.55 16.94 447.78 12.18"/><polygon class="cls-1" points="453.55 0 453.55 0 458.32 4.77 458.32 12.18 463.08 16.94 463.08 16.94 463.08 0 463.08 0 453.55 0"/><polygon class="cls-2" points="458.32 12.18 458.32 4.77 453.55 0 453.55 16.94 453.55 16.94 463.08 16.94 458.32 12.18"/><polygon class="cls-1" points="306.03 17.94 306.03 17.94 310.8 22.71 310.8 30.12 315.57 34.88 315.57 34.88 315.57 17.94 315.57 17.94 306.03 17.94"/><polygon class="cls-2" points="310.8 30.12 310.8 22.71 306.03 17.94 306.03 34.88 306.03 34.88 315.57 34.88 310.8 30.12"/><polygon class="cls-1" points="306.03 35.88 306.03 35.88 310.8 40.65 310.8 48.06 315.57 52.82 315.57 52.82 315.57 35.88 315.57 35.88 306.03 35.88"/><polygon class="cls-2" points="310.8 48.06 310.8 40.65 306.03 35.88 306.03 52.82 306.03 52.82 315.57 52.82 310.8 48.06"/><polygon class="cls-1" points="316.57 35.88 316.57 35.88 321.34 40.65 321.34 48.06 326.1 52.82 326.11 52.82 326.11 35.88 326.11 35.88 316.57 35.88"/><polygon class="cls-2" points="321.34 48.06 321.34 40.65 316.57 35.88 316.57 52.82 316.57 52.82 326.1 52.82 321.34 48.06"/><polygon class="cls-1" points="327.11 35.88 327.11 35.88 331.87 40.65 331.87 48.06 336.64 52.82 336.64 52.82 336.64 35.88 336.64 35.88 327.11 35.88"/><polygon class="cls-2" points="331.87 48.06 331.87 40.65 327.11 35.88 327.11 52.82 327.11 52.82 336.64 52.82 331.87 48.06"/><polygon class="cls-1" points="327.11 17.94 327.11 17.95 331.87 22.71 331.87 30.12 336.64 34.88 336.64 34.88 336.64 17.95 336.64 17.94 327.11 17.94"/><polygon class="cls-2" points="331.87 30.12 331.87 22.71 327.11 17.95 327.11 34.88 327.11 34.88 336.64 34.88 331.87 30.12"/><polygon class="cls-1" points="306.03 53.82 306.03 53.83 310.8 58.59 310.8 66 315.57 70.77 315.57 70.77 315.57 53.83 315.57 53.82 306.03 53.82"/><polygon class="cls-2" points="310.8 66 310.8 58.59 306.03 53.83 306.03 70.77 306.03 70.77 315.57 70.77 310.8 66"/><polygon class="cls-1" points="306.03 71.77 306.03 71.77 310.8 76.54 310.8 83.94 315.57 88.71 315.57 88.71 315.57 71.77 315.57 71.77 306.03 71.77"/><polygon class="cls-2" points="310.8 83.94 310.8 76.54 306.03 71.77 306.03 88.71 306.03 88.71 315.57 88.71 310.8 83.94"/><polygon class="cls-1" points="327.11 53.82 327.11 53.83 331.87 58.59 331.87 66 336.64 70.77 336.64 70.77 336.64 53.83 336.64 53.82 327.11 53.82"/><polygon class="cls-2" points="331.87 66 331.87 58.59 327.11 53.83 327.11 70.77 327.11 70.77 336.64 70.77 331.87 66"/><polygon class="cls-1" points="327.11 71.77 327.11 71.77 331.87 76.54 331.87 83.94 336.64 88.71 336.64 88.71 336.64 71.77 336.64 71.77 327.11 71.77"/><polygon class="cls-2" points="331.87 83.94 331.87 76.54 327.11 71.77 327.11 88.71 327.11 88.71 336.64 88.71 331.87 83.94"/><polygon class="cls-1" points="316.57 0 316.57 0 321.34 4.77 321.34 12.18 326.1 16.94 326.11 16.94 326.11 0 326.11 0 316.57 0"/><polygon class="cls-2" points="321.34 12.18 321.34 4.77 316.57 0 316.57 16.94 316.57 16.94 326.1 16.94 321.34 12.18"/><polygon class="cls-1" points="390.33 17.94 390.33 17.94 395.1 22.71 395.1 30.12 399.86 34.88 399.86 34.88 399.86 17.94 399.86 17.94 390.33 17.94"/><polygon class="cls-2" points="395.1 30.12 395.1 22.71 390.33 17.94 390.33 34.88 390.33 34.88 399.86 34.88 395.1 30.12"/><polygon class="cls-1" points="390.33 35.88 390.33 35.88 395.1 40.65 395.1 48.06 399.86 52.82 399.86 52.82 399.86 35.88 399.86 35.88 390.33 35.88"/><polygon class="cls-2" points="395.1 48.06 395.1 40.65 390.33 35.88 390.33 52.82 390.33 52.82 399.86 52.82 395.1 48.06"/><polygon class="cls-1" points="400.86 35.88 400.86 35.88 405.63 40.65 405.63 48.06 410.4 52.82 410.4 52.82 410.4 35.88 410.4 35.88 400.86 35.88"/><polygon class="cls-2" points="405.63 48.06 405.63 40.65 400.86 35.88 400.86 52.82 400.87 52.82 410.4 52.82 405.63 48.06"/><polygon class="cls-1" points="411.4 35.88 411.4 35.88 416.17 40.65 416.17 48.06 420.94 52.82 420.94 52.82 420.94 35.88 420.94 35.88 411.4 35.88"/><polygon class="cls-2" points="416.17 48.06 416.17 40.65 411.4 35.88 411.4 52.82 411.4 52.82 420.94 52.82 416.17 48.06"/><polygon class="cls-1" points="411.4 17.94 411.4 17.95 416.17 22.71 416.17 30.12 420.94 34.88 420.94 34.88 420.94 17.95 420.94 17.94 411.4 17.94"/><polygon class="cls-2" points="416.17 30.12 416.17 22.71 411.4 17.95 411.4 34.88 411.4 34.88 420.94 34.88 416.17 30.12"/><polygon class="cls-1" points="390.33 0 390.33 0 395.1 4.77 395.1 12.18 399.86 16.94 399.86 16.94 399.86 0 399.86 0 390.33 0"/><polygon class="cls-2" points="395.1 12.18 395.1 4.77 390.33 0 390.33 16.94 390.33 16.94 399.86 16.94 395.1 12.18"/><polygon class="cls-1" points="411.4 0 411.4 0 416.17 4.77 416.17 12.18 420.94 16.94 420.94 16.94 420.94 0 420.94 0 411.4 0"/><polygon class="cls-2" points="416.17 12.18 416.17 4.77 411.4 0 411.4 16.94 411.4 16.94 420.94 16.94 416.17 12.18"/><polygon class="cls-1" points="390.33 53.82 390.33 53.83 395.1 58.59 395.1 66 399.86 70.77 399.86 70.77 399.86 53.83 399.86 53.82 390.33 53.82"/><polygon class="cls-2" points="395.1 66 395.1 58.59 390.33 53.83 390.33 70.77 390.33 70.77 399.86 70.77 395.1 66"/><polygon class="cls-1" points="390.33 71.77 390.33 71.77 395.1 76.54 395.1 83.94 399.86 88.71 399.86 88.71 399.86 71.77 399.86 71.77 390.33 71.77"/><polygon class="cls-2" points="395.1 83.94 395.1 76.54 390.33 71.77 390.33 88.71 390.33 88.71 399.86 88.71 395.1 83.94"/><polygon class="cls-1" points="400.86 53.82 400.86 53.83 405.63 58.59 405.63 66 410.4 70.77 410.4 70.77 410.4 53.83 410.4 53.82 400.86 53.82"/><polygon class="cls-2" points="405.63 66 405.63 58.59 400.86 53.83 400.86 70.77 400.87 70.77 410.4 70.77 405.63 66"/><polygon class="cls-1" points="411.4 71.77 411.4 71.77 416.17 76.54 416.17 83.94 420.94 88.71 420.94 88.71 420.94 71.77 420.94 71.77 411.4 71.77"/><polygon class="cls-2" points="416.17 83.94 416.17 76.54 411.4 71.77 411.4 88.71 411.4 88.71 420.94 88.71 416.17 83.94"/><polygon class="cls-1" points="400.86 0 400.86 0 405.63 4.77 405.63 12.18 410.4 16.94 410.4 16.94 410.4 0 410.4 0 400.86 0"/><polygon class="cls-2" points="405.63 12.18 405.63 4.77 400.86 0 400.86 16.94 400.87 16.94 410.4 16.94 405.63 12.18"/><polygon class="cls-1" points="0 17.94 0 17.94 4.77 22.71 4.77 30.12 9.54 34.88 9.54 34.88 9.54 17.94 9.54 17.94 0 17.94"/><polygon class="cls-2" points="4.77 30.12 4.77 22.71 0 17.94 0 34.88 0 34.88 9.54 34.88 4.77 30.12"/><polygon class="cls-1" points="21.07 17.94 21.07 17.94 25.84 22.71 25.84 30.12 30.61 34.88 30.61 34.88 30.61 17.94 30.61 17.94 21.07 17.94"/><polygon class="cls-2" points="25.84 30.12 25.84 22.71 21.07 17.94 21.07 34.88 21.07 34.88 30.61 34.88 25.84 30.12"/><polygon class="cls-1" points="0 53.82 0 53.83 4.77 58.59 4.77 66 9.54 70.77 9.54 70.77 9.54 53.83 9.54 53.82 0 53.82"/><polygon class="cls-2" points="4.77 66 4.77 58.59 0 53.83 0 70.77 0 70.77 9.54 70.77 4.77 66"/><polygon class="cls-1" points="0 71.77 0 71.77 4.77 76.54 4.77 83.94 9.54 88.71 9.54 88.71 9.54 71.77 9.54 71.77 0 71.77"/><polygon class="cls-2" points="4.77 83.94 4.77 76.54 0 71.77 0 88.71 0 88.71 9.54 88.71 4.77 83.94"/><polygon class="cls-1" points="0 0 0 0 4.77 4.77 4.77 12.18 9.54 16.94 9.54 16.94 9.54 0 9.54 0 0 0"/><polygon class="cls-2" points="4.77 12.18 4.77 4.77 0 0 0 16.94 0 16.94 9.54 16.94 4.77 12.18"/><polygon class="cls-1" points="10.54 0 10.54 0 15.3 4.77 15.3 12.18 20.07 16.94 20.07 16.94 20.07 0 20.07 0 10.54 0"/><polygon class="cls-2" points="15.3 12.18 15.3 4.77 10.54 0 10.54 16.94 10.54 16.94 20.07 16.94 15.3 12.18"/><polygon class="cls-1" points="21.07 0 21.07 0 25.84 4.77 25.84 12.18 30.61 16.94 30.61 16.94 30.61 0 30.61 0 21.07 0"/><polygon class="cls-2" points="25.84 12.18 25.84 4.77 21.07 0 21.07 16.94 21.08 16.94 30.61 16.94 25.84 12.18"/><polygon class="cls-1" points="0 35.88 0 35.88 4.77 40.65 4.77 48.06 9.54 52.82 9.54 52.82 9.54 35.88 9.54 35.88 0 35.88"/><polygon class="cls-2" points="4.77 48.06 4.77 40.65 0 35.88 0 52.82 0 52.82 9.54 52.82 4.77 48.06"/><polygon class="cls-1" points="10.54 35.88 10.54 35.88 15.3 40.65 15.3 48.06 20.07 52.82 20.07 52.82 20.07 35.88 20.07 35.88 10.54 35.88"/><polygon class="cls-2" points="15.3 48.06 15.3 40.65 10.54 35.88 10.54 52.82 10.54 52.82 20.07 52.82 15.3 48.06"/><polygon class="cls-1" points="21.07 35.88 21.07 35.88 25.84 40.65 25.84 48.06 30.61 52.82 30.61 52.82 30.61 35.88 30.61 35.88 21.07 35.88"/><polygon class="cls-2" points="25.84 48.06 25.84 40.65 21.07 35.88 21.07 52.82 21.08 52.82 30.61 52.82 25.84 48.06"/><polygon class="cls-1" points="192.66 17.94 192.66 17.94 197.43 22.71 197.43 30.12 202.2 34.88 202.2 34.88 202.2 17.94 202.2 17.94 192.66 17.94"/><polygon class="cls-2" points="197.43 30.12 197.43 22.71 192.66 17.94 192.66 34.88 192.67 34.88 202.2 34.88 197.43 30.12"/><polygon class="cls-1" points="192.66 35.88 192.66 35.88 197.43 40.65 197.43 48.06 202.2 52.82 202.2 52.82 202.2 35.88 202.2 35.88 192.66 35.88"/><polygon class="cls-2" points="197.43 48.06 197.43 40.65 192.66 35.88 192.66 52.82 192.67 52.82 202.2 52.82 197.43 48.06"/><polygon class="cls-1" points="203.2 35.88 203.2 35.88 207.97 40.65 207.97 48.06 212.74 52.82 212.74 52.82 212.74 35.88 212.74 35.88 203.2 35.88"/><polygon class="cls-2" points="207.97 48.06 207.97 40.65 203.2 35.88 203.2 52.82 203.2 52.82 212.74 52.82 207.97 48.06"/><polygon class="cls-1" points="213.74 35.88 213.74 35.88 218.51 40.65 218.51 48.06 223.27 52.82 223.27 52.82 223.27 35.88 223.27 35.88 213.74 35.88"/><polygon class="cls-2" points="218.51 48.06 218.51 40.65 213.74 35.88 213.74 52.82 213.74 52.82 223.27 52.82 218.51 48.06"/><polygon class="cls-1" points="213.74 17.94 213.74 17.95 218.51 22.71 218.51 30.12 223.27 34.88 223.27 34.88 223.27 17.95 223.27 17.94 213.74 17.94"/><polygon class="cls-2" points="218.51 30.12 218.51 22.71 213.74 17.95 213.74 34.88 213.74 34.88 223.27 34.88 218.51 30.12"/><polygon class="cls-1" points="192.66 53.82 192.66 53.83 197.43 58.59 197.43 66 202.2 70.77 202.2 70.77 202.2 53.83 202.2 53.82 192.66 53.82"/><polygon class="cls-2" points="197.43 66 197.43 58.59 192.66 53.83 192.66 70.77 192.67 70.77 202.2 70.77 197.43 66"/><polygon class="cls-1" points="192.66 71.77 192.66 71.77 197.43 76.54 197.43 83.94 202.2 88.71 202.2 88.71 202.2 71.77 202.2 71.77 192.66 71.77"/><polygon class="cls-2" points="197.43 83.94 197.43 76.54 192.66 71.77 192.66 88.71 192.67 88.71 202.2 88.71 197.43 83.94"/><polygon class="cls-1" points="213.74 53.82 213.74 53.83 218.51 58.59 218.51 66 223.27 70.77 223.27 70.77 223.27 53.83 223.27 53.82 213.74 53.82"/><polygon class="cls-2" points="218.51 66 218.51 58.59 213.74 53.83 213.74 70.77 213.74 70.77 223.27 70.77 218.51 66"/><polygon class="cls-1" points="213.74 71.77 213.74 71.77 218.51 76.54 218.51 83.94 223.27 88.71 223.27 88.71 223.27 71.77 223.27 71.77 213.74 71.77"/><polygon class="cls-2" points="218.51 83.94 218.51 76.54 213.74 71.77 213.74 88.71 213.74 88.71 223.27 88.71 218.51 83.94"/><polygon class="cls-1" points="203.2 0 203.2 0 207.97 4.77 207.97 12.18 212.74 16.94 212.74 16.94 212.74 0 212.74 0 203.2 0"/><polygon class="cls-2" points="207.97 12.18 207.97 4.77 203.2 0 203.2 16.94 203.2 16.94 212.74 16.94 207.97 12.18"/><polygon class="cls-1" points="45.15 0 45.15 0 49.92 4.77 49.92 12.18 54.68 16.94 54.68 16.94 54.68 0 54.68 0 45.15 0"/><polygon class="cls-2" points="49.92 12.18 49.92 4.77 45.15 0 45.15 16.94 45.15 16.94 54.68 16.94 49.92 12.18"/><polygon class="cls-1" points="45.15 35.88 45.15 35.88 49.92 40.65 49.92 48.06 54.68 52.82 54.68 52.82 54.68 35.88 54.68 35.88 45.15 35.88"/><polygon class="cls-2" points="49.92 48.06 49.92 40.65 45.15 35.88 45.15 52.82 45.15 52.82 54.68 52.82 49.92 48.06"/><polygon class="cls-1" points="45.15 53.83 45.15 53.83 49.92 58.6 49.92 66 54.68 70.77 54.68 70.77 54.68 53.83 54.68 53.83 45.15 53.83"/><polygon class="cls-2" points="49.92 66 49.92 58.6 45.15 53.83 45.15 70.77 45.15 70.77 54.68 70.77 49.92 66"/><polygon class="cls-1" points="55.68 35.88 55.68 35.88 60.45 40.65 60.45 48.06 65.22 52.82 65.22 52.82 65.22 35.88 65.22 35.88 55.68 35.88"/><polygon class="cls-2" points="60.45 48.06 60.45 40.65 55.68 35.88 55.68 52.82 55.69 52.82 65.22 52.82 60.45 48.06"/><polygon class="cls-1" points="45.15 71.77 45.15 71.77 49.92 76.54 49.92 83.94 54.68 88.71 54.68 88.71 54.68 71.77 54.68 71.77 45.15 71.77"/><polygon class="cls-2" points="49.92 83.94 49.92 76.54 45.15 71.77 45.15 88.71 45.15 88.71 54.68 88.71 49.92 83.94"/><polygon class="cls-1" points="55.68 71.77 55.68 71.77 60.45 76.54 60.45 83.94 65.22 88.71 65.22 88.71 65.22 71.77 65.22 71.77 55.68 71.77"/><polygon class="cls-2" points="60.45 83.94 60.45 76.54 55.68 71.77 55.68 88.71 55.69 88.71 65.22 88.71 60.45 83.94"/><polygon class="cls-1" points="66.22 71.77 66.22 71.77 70.99 76.54 70.99 83.94 75.76 88.71 75.76 88.71 75.76 71.77 75.76 71.77 66.22 71.77"/><polygon class="cls-2" points="70.99 83.94 70.99 76.54 66.22 71.77 66.22 88.71 66.22 88.71 75.76 88.71 70.99 83.94"/><polygon class="cls-1" points="55.68 0 55.68 0 60.45 4.77 60.45 12.18 65.22 16.94 65.22 16.94 65.22 0 65.22 0 55.68 0"/><polygon class="cls-2" points="60.45 12.18 60.45 4.77 55.68 0 55.68 16.94 55.69 16.94 65.22 16.94 60.45 12.18"/><polygon class="cls-1" points="66.22 0 66.22 0 70.99 4.77 70.99 12.18 75.76 16.94 75.76 16.94 75.76 0 75.76 0 66.22 0"/><polygon class="cls-2" points="70.99 12.18 70.99 4.77 66.22 0 66.22 16.94 66.22 16.94 75.76 16.94 70.99 12.18"/><polygon class="cls-1" points="45.15 17.94 45.15 17.94 49.92 22.71 49.92 30.12 54.68 34.88 54.68 34.88 54.68 17.94 54.68 17.94 45.15 17.94"/><polygon class="cls-2" points="49.92 30.12 49.92 22.71 45.15 17.94 45.15 34.88 45.15 34.88 54.68 34.88 49.92 30.12"/><polygon class="cls-1" points="161.05 17.94 161.05 17.94 165.82 22.71 165.82 30.12 170.59 34.88 170.59 34.88 170.59 17.94 170.59 17.94 161.05 17.94"/><polygon class="cls-2" points="165.82 30.12 165.82 22.71 161.05 17.94 161.05 34.88 161.06 34.88 170.59 34.88 165.82 30.12"/><polygon class="cls-1" points="161.05 35.88 161.05 35.88 165.82 40.65 165.82 48.06 170.59 52.82 170.59 52.82 170.59 35.88 170.59 35.88 161.05 35.88"/><polygon class="cls-2" points="165.82 48.06 165.82 40.65 161.05 35.88 161.05 52.82 161.06 52.82 170.59 52.82 165.82 48.06"/><polygon class="cls-1" points="161.05 71.77 161.05 71.77 165.82 76.54 165.82 83.94 170.59 88.71 170.59 88.71 170.59 71.77 170.59 71.77 161.05 71.77"/><polygon class="cls-2" points="165.82 83.94 165.82 76.54 161.05 71.77 161.05 88.71 161.06 88.71 170.59 88.71 165.82 83.94"/><polygon class="cls-1" points="161.05 53.82 161.05 53.83 165.82 58.59 165.82 66 170.59 70.77 170.59 70.77 170.59 53.83 170.59 53.82 161.05 53.82"/><polygon class="cls-2" points="165.82 66 165.82 58.59 161.05 53.83 161.05 70.77 161.06 70.77 170.59 70.77 165.82 66"/><polygon class="cls-1" points="150.52 0 150.52 0 155.28 4.77 155.28 12.18 160.05 16.94 160.05 16.94 160.05 0 160.05 0 150.52 0"/><polygon class="cls-2" points="155.28 12.18 155.28 4.77 150.52 0 150.52 16.94 150.52 16.94 160.05 16.94 155.28 12.18"/><polygon class="cls-1" points="161.05 0 161.05 0 165.82 4.77 165.82 12.18 170.59 16.94 170.59 16.94 170.59 0 170.59 0 161.05 0"/><polygon class="cls-2" points="165.82 12.18 165.82 4.77 161.05 0 161.05 16.94 161.06 16.94 170.59 16.94 165.82 12.18"/><polygon class="cls-1" points="171.59 0 171.59 0 176.36 4.77 176.36 12.18 181.13 16.94 181.13 16.94 181.13 0 181.13 0 171.59 0"/><polygon class="cls-2" points="176.36 12.18 176.36 4.77 171.59 0 171.59 16.94 171.59 16.94 181.13 16.94 176.36 12.18"/><polygon class="cls-1" points="87.3 17.94 87.3 17.94 92.06 22.71 92.06 30.12 96.83 34.88 96.83 34.88 96.83 17.94 96.83 17.94 87.3 17.94"/><polygon class="cls-2" points="92.06 30.12 92.06 22.71 87.3 17.94 87.3 34.88 87.3 34.88 96.83 34.88 92.06 30.12"/><polygon class="cls-1" points="87.3 35.88 87.3 35.88 92.06 40.65 92.06 48.06 96.83 52.82 96.83 52.82 96.83 35.88 96.83 35.88 87.3 35.88"/><polygon class="cls-2" points="92.06 48.06 92.06 40.65 87.3 35.88 87.3 52.82 87.3 52.82 96.83 52.82 92.06 48.06"/><polygon class="cls-1" points="108.37 35.88 108.37 35.88 113.14 40.65 113.14 48.06 117.9 52.82 117.91 52.82 117.91 35.88 117.91 35.88 108.37 35.88"/><polygon class="cls-2" points="113.14 48.06 113.14 40.65 108.37 35.88 108.37 52.82 108.37 52.82 117.9 52.82 113.14 48.06"/><polygon class="cls-1" points="118.91 53.82 118.91 53.83 123.67 58.59 123.67 66 128.44 70.77 128.44 70.77 128.44 53.83 128.44 53.82 118.91 53.82"/><polygon class="cls-2" points="123.67 66 123.67 58.59 118.91 53.83 118.91 70.77 118.91 70.77 128.44 70.77 123.67 66"/><polygon class="cls-1" points="129.44 71.77 129.44 71.77 134.21 76.54 134.21 83.94 138.98 88.71 138.98 88.71 138.98 71.77 138.98 71.77 129.44 71.77"/><polygon class="cls-2" points="134.21 83.94 134.21 76.54 129.44 71.77 129.44 88.71 129.44 88.71 138.98 88.71 134.21 83.94"/><polygon class="cls-1" points="87.3 53.82 87.3 53.83 92.06 58.59 92.06 66 96.83 70.77 96.83 70.77 96.83 53.83 96.83 53.82 87.3 53.82"/><polygon class="cls-2" points="92.06 66 92.06 58.59 87.3 53.83 87.3 70.77 87.3 70.77 96.83 70.77 92.06 66"/><polygon class="cls-1" points="87.3 71.77 87.3 71.77 92.06 76.54 92.06 83.94 96.83 88.71 96.83 88.71 96.83 71.77 96.83 71.77 87.3 71.77"/><polygon class="cls-2" points="92.06 83.94 92.06 76.54 87.3 71.77 87.3 88.71 87.3 88.71 96.83 88.71 92.06 83.94"/><polygon class="cls-1" points="87.3 0 87.3 0 92.06 4.77 92.06 12.18 96.83 16.94 96.83 16.94 96.83 0 96.83 0 87.3 0"/><polygon class="cls-2" points="92.06 12.18 92.06 4.77 87.3 0 87.3 16.94 87.3 16.94 96.83 16.94 92.06 12.18"/><polygon class="cls-1" points="129.44 17.94 129.44 17.94 134.21 22.71 134.21 30.12 138.98 34.88 138.98 34.88 138.98 17.94 138.98 17.94 129.44 17.94"/><polygon class="cls-2" points="134.21 30.12 134.21 22.71 129.44 17.94 129.44 34.88 129.44 34.88 138.98 34.88 134.21 30.12"/><polygon class="cls-1" points="129.44 35.88 129.44 35.88 134.21 40.65 134.21 48.06 138.98 52.82 138.98 52.82 138.98 35.88 138.98 35.88 129.44 35.88"/><polygon class="cls-2" points="134.21 48.06 134.21 40.65 129.44 35.88 129.44 52.82 129.44 52.82 138.98 52.82 134.21 48.06"/><polygon class="cls-1" points="129.44 53.82 129.44 53.83 134.21 58.59 134.21 66 138.98 70.77 138.98 70.77 138.98 53.83 138.98 53.82 129.44 53.82"/><polygon class="cls-2" points="134.21 66 134.21 58.59 129.44 53.83 129.44 70.77 129.44 70.77 138.98 70.77 134.21 66"/><polygon class="cls-1" points="129.44 0 129.44 0 134.21 4.77 134.21 12.18 138.98 16.94 138.98 16.94 138.98 0 138.98 0 129.44 0"/><polygon class="cls-2" points="134.21 12.18 134.21 4.77 129.44 0 129.44 16.94 129.44 16.94 138.98 16.94 134.21 12.18"/><polygon class="cls-1" points="97.83 17.94 97.83 17.94 102.6 22.71 102.6 30.12 107.37 34.88 107.37 34.88 107.37 17.94 107.37 17.94 97.83 17.94"/><polygon class="cls-2" points="102.6 30.12 102.6 22.71 97.83 17.94 97.83 34.88 97.83 34.88 107.37 34.88 102.6 30.12"/><polygon class="cls-1" points="238.81 17.94 238.81 17.94 243.58 22.71 243.58 30.12 248.35 34.88 248.35 34.88 248.35 17.94 248.35 17.94 238.81 17.94"/><polygon class="cls-2" points="243.58 30.12 243.58 22.71 238.81 17.94 238.81 34.88 238.81 34.88 248.35 34.88 243.58 30.12"/><polygon class="cls-1" points="238.81 35.88 238.81 35.88 243.58 40.65 243.58 48.06 248.35 52.82 248.35 52.82 248.35 35.88 248.35 35.88 238.81 35.88"/><polygon class="cls-2" points="243.58 48.06 243.58 40.65 238.81 35.88 238.81 52.82 238.81 52.82 248.35 52.82 243.58 48.06"/><polygon class="cls-1" points="259.88 35.88 259.88 35.88 264.65 40.65 264.65 48.06 269.42 52.82 269.42 52.82 269.42 35.88 269.42 35.88 259.88 35.88"/><polygon class="cls-2" points="264.65 48.06 264.65 40.65 259.88 35.88 259.88 52.82 259.89 52.82 269.42 52.82 264.65 48.06"/><polygon class="cls-1" points="270.42 17.94 270.42 17.95 275.19 22.71 275.19 30.12 279.96 34.88 279.96 34.88 279.96 17.95 279.96 17.94 270.42 17.94"/><polygon class="cls-2" points="275.19 30.12 275.19 22.71 270.42 17.95 270.42 34.88 270.42 34.88 279.96 34.88 275.19 30.12"/><polygon class="cls-1" points="280.96 71.77 280.96 71.77 285.73 76.54 285.73 83.94 290.49 88.71 290.5 88.71 290.5 71.77 290.5 71.77 280.96 71.77"/><polygon class="cls-2" points="285.73 83.94 285.73 76.54 280.96 71.77 280.96 88.71 280.96 88.71 290.49 88.71 285.73 83.94"/><polygon class="cls-1" points="238.81 53.82 238.81 53.83 243.58 58.59 243.58 66 248.35 70.77 248.35 70.77 248.35 53.83 248.35 53.82 238.81 53.82"/><polygon class="cls-2" points="243.58 66 243.58 58.59 238.81 53.83 238.81 70.77 238.81 70.77 248.35 70.77 243.58 66"/><polygon class="cls-1" points="238.81 71.77 238.81 71.77 243.58 76.54 243.58 83.94 248.35 88.71 248.35 88.71 248.35 71.77 248.35 71.77 238.81 71.77"/><polygon class="cls-2" points="243.58 83.94 243.58 76.54 238.81 71.77 238.81 88.71 238.81 88.71 248.35 88.71 243.58 83.94"/><polygon class="cls-1" points="238.81 0 238.81 0 243.58 4.77 243.58 12.18 248.35 16.94 248.35 16.94 248.35 0 248.35 0 238.81 0"/><polygon class="cls-2" points="243.58 12.18 243.58 4.77 238.81 0 238.81 16.94 238.81 16.94 248.35 16.94 243.58 12.18"/><polygon class="cls-1" points="280.96 17.94 280.96 17.94 285.73 22.71 285.73 30.12 290.49 34.88 290.5 34.88 290.5 17.94 290.5 17.94 280.96 17.94"/><polygon class="cls-2" points="285.73 30.12 285.73 22.71 280.96 17.94 280.96 34.88 280.96 34.88 290.49 34.88 285.73 30.12"/><polygon class="cls-1" points="280.96 35.88 280.96 35.88 285.73 40.65 285.73 48.06 290.49 52.82 290.5 52.82 290.5 35.88 290.5 35.88 280.96 35.88"/><polygon class="cls-2" points="285.73 48.06 285.73 40.65 280.96 35.88 280.96 52.82 280.96 52.82 290.49 52.82 285.73 48.06"/><polygon class="cls-1" points="280.96 53.82 280.96 53.83 285.73 58.59 285.73 66 290.49 70.77 290.5 70.77 290.5 53.83 290.5 53.82 280.96 53.82"/><polygon class="cls-2" points="285.73 66 285.73 58.59 280.96 53.83 280.96 70.77 280.96 70.77 290.49 70.77 285.73 66"/><polygon class="cls-1" points="280.96 0 280.96 0 285.73 4.77 285.73 12.18 290.49 16.94 290.5 16.94 290.5 0 290.5 0 280.96 0"/><polygon class="cls-2" points="285.73 12.18 285.73 4.77 280.96 0 280.96 16.94 280.96 16.94 290.49 16.94 285.73 12.18"/><polygon class="cls-1" points="249.35 17.94 249.35 17.94 254.12 22.71 254.12 30.12 258.88 34.88 258.88 34.88 258.88 17.94 258.88 17.94 249.35 17.94"/><polygon class="cls-2" points="254.12 30.12 254.12 22.71 249.35 17.94 249.35 34.88 249.35 34.88 258.88 34.88 254.12 30.12"/></svg>